<svg id="Layer_1" data-name="Layer 1" xmlns="http://www.w3.org/2000/svg" viewBox="0 0 400 400"><defs><style>.cls-1{fill:#474747;}</style></defs><title>Artboard 1</title><path class="cls-1" d="M196.18,299.73c-24,0-51.46-19.22-51.46-58.31,0-39.44,27.44-58.66,51.46-58.66s51.45,19.22,51.45,58.66c0,39.1-27.44,58.31-51.45,58.31m0-149.9-8.7.05c-28.54,0-32.27-13-32.27-21.06s3.89-18.35,32.27-18.35l34.32,0c39.51,0,51.28-13.37,63.73-38.87h-41.1c-5.37,6.65-10.47,6.76-26,6.76l-30.93-.11c-42.8,0-69.64,19.36-69.64,50.61,0,17.75,8.16,32.08,22.6,41.4-19,15.12-33.44,38.7-33.44,71.19,0,62.09,51.78,91.25,89.18,91.25s89.18-29.16,89.18-91.25c0-61.74-51.79-91.58-89.18-91.58"/></svg>